<svg width="69" height="69" viewBox="0 0 69 69" fill="none" xmlns="http://www.w3.org/2000/svg">
<g clip-path="url(#clip0_1_13)">
<rect width="69" height="69" fill="white"/>
<rect y="-1" width="69" height="69" fill="#19AA42"/>
<path d="M2.43466 22V7.45455H7.8892C9.00663 7.45455 9.94413 7.64867 10.7017 8.03693C11.464 8.42519 12.0393 8.9697 12.4276 9.67045C12.8205 10.3665 13.017 11.1785 13.017 12.1065C13.017 13.0393 12.8182 13.849 12.4205 14.5355C12.0275 15.2173 11.4474 15.7453 10.6804 16.1193C9.91335 16.4886 8.97112 16.6733 7.85369 16.6733H3.96875V14.4858H7.49858C8.15199 14.4858 8.68703 14.3958 9.10369 14.2159C9.52036 14.0312 9.82813 13.7637 10.027 13.4134C10.2306 13.0582 10.3324 12.6226 10.3324 12.1065C10.3324 11.5904 10.2306 11.1501 10.027 10.7855C9.82339 10.4162 9.51326 10.1368 9.09659 9.94744C8.67992 9.75331 8.14252 9.65625 7.48438 9.65625H5.0696V22H2.43466ZM9.94886 15.4091L13.5497 22H10.6094L7.07244 15.4091H9.94886ZM28.4396 14.7273C28.4396 16.2945 28.1461 17.6368 27.5589 18.7543C26.9766 19.867 26.1811 20.7192 25.1726 21.3111C24.1688 21.9029 23.0301 22.1989 21.7564 22.1989C20.4827 22.1989 19.3416 21.9029 18.3331 21.3111C17.3293 20.7145 16.5339 19.8598 15.9467 18.7472C15.3643 17.6297 15.0732 16.2898 15.0732 14.7273C15.0732 13.16 15.3643 11.8201 15.9467 10.7074C16.5339 9.58996 17.3293 8.73532 18.3331 8.14347C19.3416 7.55161 20.4827 7.25568 21.7564 7.25568C23.0301 7.25568 24.1688 7.55161 25.1726 8.14347C26.1811 8.73532 26.9766 9.58996 27.5589 10.7074C28.1461 11.8201 28.4396 13.16 28.4396 14.7273ZM25.7905 14.7273C25.7905 13.6241 25.6177 12.6937 25.272 11.9361C24.9311 11.1738 24.4576 10.5985 23.8516 10.2102C23.2455 9.81723 22.5471 9.62074 21.7564 9.62074C20.9657 9.62074 20.2673 9.81723 19.6612 10.2102C19.0552 10.5985 18.5793 11.1738 18.2337 11.9361C17.8928 12.6937 17.7223 13.6241 17.7223 14.7273C17.7223 15.8305 17.8928 16.7633 18.2337 17.5256C18.5793 18.2831 19.0552 18.8584 19.6612 19.2514C20.2673 19.6397 20.9657 19.8338 21.7564 19.8338C22.5471 19.8338 23.2455 19.6397 23.8516 19.2514C24.4576 18.8584 24.9311 18.2831 25.272 17.5256C25.6177 16.7633 25.7905 15.8305 25.7905 14.7273ZM32.0174 22H29.2049L34.3256 7.45455H37.5785L42.7063 22H39.8938L36.0089 10.4375H35.8952L32.0174 22ZM32.1097 16.2969H39.7802V18.4134H32.1097V16.2969ZM52.2926 11.4531C52.2263 10.8329 51.947 10.3499 51.4545 10.0043C50.9669 9.65862 50.3324 9.4858 49.5511 9.4858C49.0019 9.4858 48.5308 9.56866 48.1378 9.73438C47.7448 9.90009 47.4441 10.125 47.2358 10.4091C47.0275 10.6932 46.9209 11.0175 46.9162 11.3821C46.9162 11.6851 46.9848 11.9479 47.1222 12.1705C47.2642 12.393 47.456 12.5824 47.6974 12.7386C47.9389 12.8902 48.2064 13.018 48.5 13.1222C48.7936 13.2263 49.0895 13.3139 49.3878 13.3849L50.7514 13.7259C51.3007 13.8537 51.8286 14.0265 52.3352 14.2443C52.8466 14.4621 53.3035 14.7367 53.706 15.0682C54.1132 15.3996 54.4351 15.7997 54.6719 16.2685C54.9086 16.7372 55.027 17.2865 55.027 17.9162C55.027 18.7685 54.8092 19.5189 54.3736 20.1676C53.938 20.8116 53.3082 21.3158 52.4844 21.6804C51.6652 22.0402 50.6733 22.2202 49.5085 22.2202C48.3769 22.2202 47.3944 22.045 46.5611 21.6946C45.7325 21.3442 45.0838 20.8329 44.6151 20.1605C44.151 19.4882 43.9001 18.669 43.8622 17.7031H46.4545C46.4924 18.2098 46.6487 18.6312 46.9233 18.9673C47.1979 19.3035 47.5554 19.5545 47.9957 19.7202C48.4408 19.8859 48.938 19.9688 49.4872 19.9688C50.0601 19.9688 50.562 19.8835 50.9929 19.7131C51.4285 19.5379 51.7694 19.2964 52.0156 18.9886C52.2618 18.6761 52.3873 18.3116 52.392 17.8949C52.3873 17.5161 52.276 17.2036 52.0582 16.9574C51.8404 16.7064 51.535 16.4981 51.142 16.3324C50.7538 16.1619 50.2992 16.0104 49.7784 15.8778L48.1236 15.4517C46.9257 15.1439 45.9787 14.6776 45.2827 14.0526C44.5914 13.4228 44.2457 12.5871 44.2457 11.5455C44.2457 10.6884 44.4777 9.93797 44.9418 9.29403C45.4105 8.65009 46.0473 8.15057 46.8523 7.79545C47.6572 7.43561 48.5687 7.25568 49.5866 7.25568C50.6188 7.25568 51.5232 7.43561 52.2997 7.79545C53.081 8.15057 53.6941 8.64536 54.1392 9.27983C54.5843 9.90956 54.8139 10.634 54.8281 11.4531H52.2926ZM56.7369 9.66335V7.45455H68.342V9.66335H63.8462V22H61.2326V9.66335H56.7369Z" fill="white"/>
<path d="M18.8841 32.265V35.5815H50.1159V32.265H18.8841ZM21.5984 39.0383V51.9908H47.3989V39.0383H21.5984ZM25.3384 42.3492H43.6988V48.6811H25.3397L25.3384 42.3492ZM27.6167 52.5408L24.1627 53.8305C25.5886 55.8394 26.734 57.7149 27.6167 59.4556H18V62.735H51V59.4556H41.8178C42.9425 57.8386 44.0026 55.959 44.9844 53.8305L41.2306 52.5408C40.3132 54.9477 39.172 57.2633 37.822 59.457H31.2908C30.21 56.7593 28.9849 54.4506 27.6167 52.5408Z" fill="white"/>
</g>
<defs>
<clipPath id="clip0_1_13">
<rect width="69" height="69" fill="white"/>
</clipPath>
</defs>
</svg>
